HIERARCHY
ROOT hip
{
	OFFSET 0.000000 0.000000 0.000000 
	CHANNELS 6 Xposition Yposition Zposition Xrotation Zrotation Yrotation
	JOINT abdomen
	{
		OFFSET 0.000000 3.402643 0.000000 
		CHANNELS 3 Xrotation Zrotation Yrotation
		JOINT chest
		{
			OFFSET 0.000000 8.438565 -0.680529 
			CHANNELS 3 Xrotation Zrotation Yrotation
			JOINT neck
			{
				OFFSET 0.000000 10.207942 -0.272212 
				CHANNELS 3 Xrotation Zrotation Yrotation
				JOINT head
				{
					OFFSET 0.000000 3.130431 0.000000 
					CHANNELS 3 Xrotation Zrotation Yrotation
					End Site
					{
						OFFSET 0.000000 3.130435 0.000000 
					}
				}
			}
			JOINT lCollar
			{
				OFFSET 3.470700 6.669187 -0.816635 
				CHANNELS 3 Yrotation Zrotation Xrotation
				JOINT lShldr
				{
					OFFSET 3.198488 0.000000 0.000000 
					CHANNELS 3 Zrotation Yrotation Xrotation
					JOINT lForeArm
					{
						OFFSET 10.139888 0.000000 0.000000 
						CHANNELS 3 Yrotation Zrotation Xrotation
						JOINT lHand
						{
							OFFSET 8.370511 0.000000 0.000000 
							CHANNELS 3 Zrotation Yrotation Xrotation
							End Site
							{
								OFFSET 4.083176 0.000000 0.000000 
							}
						}
					}
				}
			}
			JOINT rCollar
			{
				OFFSET -3.470700 6.669187 -0.816635 
				CHANNELS 3 Yrotation Zrotation Xrotation
				JOINT rShldr
				{
					OFFSET -3.198488 0.000000 0.000000 
					CHANNELS 3 Zrotation Yrotation Xrotation
					JOINT rForeArm
					{
						OFFSET -10.139888 0.000000 0.000000 
						CHANNELS 3 Yrotation Zrotation Xrotation
						JOINT rHand
						{
							OFFSET -8.370511 0.000000 0.000000 
							CHANNELS 3 Zrotation Yrotation Xrotation
							End Site
							{
								OFFSET -4.083176 0.000000 0.000000 
							}
						}
					}
				}
			}
		}
	}
	JOINT lThigh
	{
		OFFSET 5.308129 -1.633274 1.361059 
		CHANNELS 3 Xrotation Zrotation Yrotation
		JOINT lShin
		{
			OFFSET -2.041588 -20.007561 0.000000 
			CHANNELS 3 Xrotation Zrotation Yrotation
			JOINT lFoot
			{
				OFFSET 0.000000 -19.190928 -1.224953 
				CHANNELS 3 Xrotation Yrotation Zrotation
				End Site
				{
					OFFSET 0.000000 -2.449906 4.627600 
				}
			}
		}
	}
	JOINT rThigh
	{
		OFFSET -5.308129 -1.633274 1.361059 
		CHANNELS 3 Xrotation Zrotation Yrotation
		JOINT rShin
		{
			OFFSET 2.041588 -20.007561 0.000000 
			CHANNELS 3 Xrotation Zrotation Yrotation
			JOINT rFoot
			{
				OFFSET 0.000000 -19.190928 -1.224953 
				CHANNELS 3 Xrotation Yrotation Zrotation
				End Site
				{
					OFFSET 0.000000 -2.449906 4.627600 
				}
			}
		}
	}
}
MOTION
Frames: 13
Frame Time: 0.041667
-0.001446 53.540028 0.328963 0.015281 -0.160640 1.231823 -0.202907 -1.017809 5.550794 -0.022874 -2.631104 2.992055 0.000000 -0.013966 1.260307 3.799483 -1.201510 7.998748 1.995633 -5.198503 -0.066274 -67.927269 9.118170 16.272665 -21.931410 -10.126495 0.183757 7.176900 0.006760 -0.199428 -2.073388 5.740290 -0.032083 69.997337 -10.220574 15.994720 22.056797 9.141955 0.185632 -6.714065 1.209019 -1.635230 -7.551804 4.214809 0.125835 15.585843 -3.309215 -0.808465 -8.337287 -0.207245 -0.942812 -7.072927 -4.077958 0.028241 15.140048 3.277331 0.570500 -8.423216 -2.749167 0.862214 
-0.003638 53.602871 0.364281 0.029094 -0.365053 2.705819 -0.405698 -2.258638 12.353357 -0.052152 -5.847552 6.673103 0.000000 -0.034980 2.774635 8.442243 -2.649348 17.763102 2.030047 -4.497921 -0.053246 -65.287750 8.064266 16.616629 -21.244436 -11.131540 0.221582 8.263145 0.238462 -0.627599 -2.153467 5.878734 0.045385 70.024216 -10.653119 15.979605 21.414261 9.309513 0.252431 -7.565822 2.564503 -3.757868 -7.501409 4.496881 0.123082 15.120721 -3.290245 -0.765460 -7.970767 -1.725885 -1.057690 -6.452955 -3.748653 -0.055355 14.178856 3.239592 0.472283 -8.083670 -4.153584 0.781128 
-0.004184 53.618515 0.373072 0.061213 -0.535572 4.277362 -0.777525 -3.492420 18.981796 -0.075949 -9.012057 10.205814 0.000000 -0.040147 4.373454 13.025265 -4.157529 27.440102 2.113482 -3.674499 -0.027647 -62.624470 7.034402 16.953627 -20.465059 -12.123206 0.282436 9.160765 0.496119 -1.067286 -2.251633 6.081680 0.156132 70.159958 -11.214204 15.950140 20.665663 9.744547 0.338610 -8.441966 4.085773 -5.980392 -7.722796 4.735192 0.119841 15.108747 -3.299552 -0.765842 -7.840900 -3.332504 -1.136133 -6.118481 -3.493488 -0.127979 13.752612 3.218623 0.442000 -8.039883 -5.664504 0.695605 
0.000000 53.498543 0.305648 0.140966 -0.588000 5.920680 -1.579400 -4.545870 24.255800 -0.081138 -11.618200 12.859500 0.000000 0.000000 6.000000 16.840300 -5.638830 35.604698 2.199272 -2.822811 -0.001291 -60.240200 6.206450 17.227100 -19.525499 -12.948100 0.400552 10.093674 0.762794 -1.522818 -2.353121 6.291114 0.270448 70.299103 -11.793921 15.919797 19.891285 10.191698 0.427656 -9.349659 5.660111 -8.284994 -8.672421 4.828677 0.146981 16.364857 -3.346981 -0.905014 -8.241468 -4.977680 -1.109999 -6.623362 -3.453089 -0.197466 14.911632 3.268945 0.563573 -8.767127 -7.294607 0.632393 
0.010322 53.172047 0.118773 0.286617 -0.465829 7.598319 -2.919498 -5.289156 27.299391 -0.058243 -13.293892 14.099442 0.000000 0.108980 7.606492 19.319221 -7.011999 41.139534 2.240754 -2.037434 0.014009 -58.375629 5.698100 17.393332 -18.419298 -13.489226 0.590310 11.285796 1.021550 -1.998521 -2.443166 6.449031 0.358622 70.336250 -12.282376 15.902061 19.171425 10.395615 0.503058 -10.296071 7.174804 -10.653866 -10.716804 4.723835 0.181962 19.488281 -3.486532 -1.208018 -9.465892 -6.636172 -0.930556 -8.403085 -3.757351 -0.248896 18.396254 3.414392 0.917017 -10.605721 -9.000972 0.539826 
0.021490 52.638126 -0.204996 0.472185 -0.223303 9.226099 -4.294642 -5.766247 28.453917 -0.012378 -14.204376 14.174816 0.000000 0.286525 9.181080 20.454386 -8.219670 44.158009 2.191263 -1.412943 0.006442 -57.023167 5.386325 17.459946 -17.385357 -13.775185 0.786671 12.961051 1.255449 -2.498723 -2.507003 6.497417 0.390943 70.165947 -12.569665 15.910408 18.586367 10.100938 0.548304 -11.288366 8.517135 -13.069199 -13.723687 4.470271 0.249761 24.206284 -3.672352 -1.673202 -11.270829 -8.198944 -0.624668 -11.578174 -4.265519 -0.284938 24.000185 3.629269 1.504147 -13.195215 -10.677037 0.324378 
0.026539 51.913364 -0.676648 0.660630 0.057650 10.708160 -5.048822 -6.064559 28.365063 0.047697 -14.649233 13.530779 0.000000 0.526420 10.720896 20.378262 -9.210451 45.081184 2.004133 -1.043914 -0.035806 -56.113171 5.087926 17.447414 -16.723927 -13.870978 0.904744 15.343356 1.447553 -3.027749 -2.529867 6.378263 0.337701 69.682762 -12.545882 15.958311 18.216400 9.052310 0.546883 -12.333708 9.574387 -15.513180 -17.462702 4.177394 0.341345 30.034616 -3.867964 -2.255896 -13.397559 -9.574498 -0.188155 -15.363886 -4.971392 -0.297073 30.739130 3.858481 2.180725 -16.274031 -12.090580 0.170207 
0.018501 51.014370 -1.307172 0.814910 0.295098 11.948647 -4.526025 -6.271514 27.678526 0.113220 -14.928047 12.612488 0.000000 0.822450 12.223079 19.223314 -9.932948 44.330128 1.632700 -1.024921 -0.124546 -55.576019 4.619701 17.376207 -16.735256 -13.841615 0.859636 18.656631 1.580926 -3.589929 -2.496994 6.033557 0.169185 68.781258 -12.101128 16.059250 18.141813 6.994376 0.482282 -13.439264 10.233848 -17.967999 -21.680996 3.933720 0.436426 36.483448 -4.054456 -2.917089 -15.583204 -10.683120 0.302863 -19.492283 -5.774928 -0.289188 37.822533 4.064433 2.921888 -19.322731 -13.153303 0.018246 
-0.009586 49.957733 -2.107557 0.897985 0.407112 12.851700 -2.070240 -6.474530 27.040001 0.175430 -15.340400 11.865100 0.000000 1.168402 13.684760 17.122023 -10.335772 42.325932 1.030300 -1.450540 -0.271591 -55.342098 3.798450 17.266800 -17.719601 -13.752100 0.566455 23.124800 1.638630 -4.189590 -2.393620 5.405290 -0.144315 67.356003 -11.125500 16.226700 18.442900 3.671780 0.337990 -14.612200 10.382800 -20.415850 -26.143826 3.846024 0.554989 43.048153 -4.172039 -3.623220 -17.589991 -11.449198 0.840408 -23.938587 -6.463055 -0.274669 44.984058 4.191748 3.669371 -22.069221 -13.790671 -0.121726 
-0.063841 48.759304 -3.067548 0.882349 0.337312 13.353222 2.705098 -6.743536 26.932751 0.224699 -16.094511 11.607910 0.000000 1.558059 15.103075 14.206859 -10.367530 39.489670 0.185227 -2.359385 -0.481332 -55.369865 2.499568 17.137217 -19.798082 -13.654249 -0.011271 28.733557 1.667615 -4.813229 -2.210704 4.484496 -0.621689 65.331406 -9.563086 16.463602 19.166525 -1.030502 0.118330 -15.842855 9.961105 -22.838928 -30.673403 3.984130 0.678073 49.357933 -4.202324 -4.306429 -19.215405 -11.876188 1.353057 -28.520422 -6.942104 -0.227492 51.558212 4.210722 4.361501 -24.055456 -14.072060 -0.219077 
-0.146978 47.431973 -4.091903 0.778648 0.131524 13.516165 9.108734 -7.078496 27.190340 0.247935 -17.033157 11.656775 0.000000 1.985207 16.475157 10.610299 -9.976829 36.242424 -0.774375 -3.566219 -0.728473 -55.730186 0.832852 16.995716 -22.375324 -13.547131 -0.716333 34.515671 1.970382 -5.376023 -1.962109 3.458401 -1.238535 62.751369 -7.573955 16.730770 20.225874 -6.666132 -0.089035 -17.054276 9.118934 -25.219419 -35.155849 4.306522 0.763712 55.441196 -4.134880 -4.979102 -20.614634 -11.999761 1.815745 -32.603237 -7.160842 -0.216017 57.631210 4.123975 5.022770 -25.979383 -14.127720 -0.354198 
-0.260864 45.987865 -5.064140 0.607063 -0.138876 13.435247 16.179983 -7.461891 27.483915 0.231180 -17.907759 11.701696 0.000000 2.443633 17.798141 6.464814 -9.112275 33.005264 -1.685405 -4.829844 -0.980296 -56.522034 -1.033306 16.848116 -24.676838 -13.416628 -1.343104 39.265713 2.913321 -5.775322 -1.667423 2.563276 -1.959631 59.689663 -5.372169 16.978489 21.500723 -12.648456 -0.175608 -18.152689 8.059031 -27.539520 -39.801575 4.529617 0.783313 61.452599 -3.996967 -5.644191 -21.720308 -11.753687 2.425204 -36.953148 -7.211401 -0.225456 63.486526 3.932606 5.639817 -27.399338 -14.039548 -0.517087 
-0.407365 44.439133 -5.867767 0.387775 -0.402509 13.205188 22.958138 -7.876196 27.484623 0.160475 -18.469734 11.432673 0.000000 2.927119 19.069157 1.902881 -7.722481 30.199268 -2.384761 -5.909064 -1.204084 -57.844387 -2.930511 16.700237 -25.928127 -13.248623 -1.685956 41.778240 4.862817 -5.908475 -1.346234 2.035392 -2.749753 56.220055 -3.171793 17.157040 22.870842 -18.390797 -0.032890 -19.044323 6.984149 -29.781416 -44.101208 5.064152 0.700539 67.519302 -3.775373 -6.285896 -23.248692 -11.559560 2.732583 -41.170071 -7.162982 -0.291601 69.356850 3.658959 6.230512 -28.936743 -13.890417 -0.768293 
